<svg xmlns="http://www.w3.org/2000/svg" viewBox="0 0 48 48">
  <path fill="#1DA1F2" d="M44 12.1c-1.4.6-2.9 1-4.4 1.2 1.6-1 2.8-2.6 3.4-4.5-1.5.9-3.2 1.5-5 1.9-1.4-1.5-3.5-2.5-5.8-2.5-4.4 0-7.9 3.6-7.9 7.9 0 .6.1 1.1.2 1.6-6.6-.3-12.4-3.5-16.3-8.3-.7 1.2-1.1 2.5-1.1 3.9 0 2.7 1.4 5.1 3.6 6.5-1.3 0-2.5-.4-3.5-1v.1c0 3.8 2.7 6.9 6.4 7.6-.7.2-1.4.3-2.1.3-.5 0-1 0-1.5-.1 1 3.3 4.1 5.7 7.8 5.8-2.8 2.2-6.4 3.5-10.3 3.5-.7 0-1.4 0-2.1-.1 3.6 2.3 8 3.6 12.7 3.6 15.2 0 23.5-12.6 23.5-23.5 0-.4 0-.8 0-1.2 1.6-1.1 3-2.5 4.1-4.1z"/>
</svg>